
<svg width="1440" height="600" viewBox="0 0 1440 600" fill="none" xmlns="http://www.w3.org/2000/svg">
  <g opacity="0.1">
    <circle cx="582.5" cy="225.5" r="1.5" fill="white"/>
    <circle cx="731.5" cy="118.5" r="1.5" fill="white"/>
    <circle cx="381.5" cy="351.5" r="1.5" fill="white"/>
    <circle cx="883.5" cy="531.5" r="1.5" fill="white"/>
    <circle cx="131.5" cy="531.5" r="1.5" fill="white"/>
    <circle cx="975.5" cy="156.5" r="1.5" fill="white"/>
    <circle cx="1175.5" cy="531.5" r="1.5" fill="white"/>
    <circle cx="431.5" cy="169.5" r="1.5" fill="white"/>
    <circle cx="222.5" cy="390.5" r="1.5" fill="white"/>
    <circle cx="1322.5" cy="227.5" r="1.5" fill="white"/>
    <circle cx="1109.5" cy="334.5" r="1.5" fill="white"/>
    <circle cx="125" cy="96" r="2" fill="white"/>
    <circle cx="292" cy="164" r="2" fill="white"/>
    <circle cx="1225" cy="441" r="2" fill="white"/>
    <circle cx="1109" cy="128" r="2" fill="white"/>
    <circle cx="871" cy="312" r="2" fill="white"/>
    <circle cx="337" cy="444" r="2" fill="white"/>
    <circle cx="667" cy="531" r="2" fill="white"/>
    <circle cx="496" cy="312" r="2" fill="white"/>
    <circle cx="1387" cy="344" r="2" fill="white"/>
    <circle cx="601" cy="128" r="2" fill="white"/>
    <circle cx="57" cy="251" r="2" fill="white"/>
    <circle cx="707" cy="409" r="2" fill="white"/>
    <circle cx="1024" cy="293" r="3" fill="white"/>
    <circle cx="291" cy="270" r="3" fill="white"/>
    <circle cx="549" cy="474" r="3" fill="white"/>
    <circle cx="1335" cy="447" r="3" fill="white"/>
    <circle cx="149" cy="344" r="3" fill="white"/>
    <circle cx="1121" cy="234" r="3" fill="white"/>
    <circle cx="823" cy="134" r="3" fill="white"/>
    <circle cx="494" cy="69" r="3" fill="white"/>
  </g>
</svg>
