
<svg width="1440" height="800" viewBox="0 0 1440 800" fill="none" xmlns="http://www.w3.org/2000/svg">
  <defs>
    <radialGradient id="radialStar" cx="0.5" cy="0.5" r="0.5" fx="0.5" fy="0.5">
      <stop offset="0%" stop-color="white" stop-opacity="1" />
      <stop offset="100%" stop-color="white" stop-opacity="0" />
    </radialGradient>
  </defs>
  
  <!-- Background galaxy colors -->
  <rect width="1440" height="800" fill="url(#cosmicGradient)" />
  
  <linearGradient id="cosmicGradient" x1="0" y1="0" x2="100%" y2="100%">
    <stop offset="0%" stop-color="#0F172A" />
    <stop offset="30%" stop-color="#1E1B4B" />
    <stop offset="70%" stop-color="#4C1D95" />
    <stop offset="100%" stop-color="#701A75" />
  </linearGradient>
  
  <!-- Small stars -->
  <g opacity="0.8">
    <circle cx="82" cy="125" r="1" fill="white"/>
    <circle cx="192" cy="64" r="1.2" fill="white"/>
    <circle cx="331" cy="251" r="1" fill="white"/>
    <circle cx="483" cy="131" r="1.3" fill="white"/>
    <circle cx="582" cy="325" r="1" fill="white"/>
    <circle cx="731" cy="118" r="1.5" fill="white"/>
    <circle cx="831" cy="451" r="1" fill="white"/>
    <circle cx="983" cy="331" r="1.4" fill="white"/>
    <circle cx="1075" cy="256" r="1" fill="white"/>
    <circle cx="1175" cy="431" r="1.5" fill="white"/>
    <circle cx="1322" cy="227" r="1" fill="white"/>
    <circle cx="92" cy="525" r="1.2" fill="white"/>
    <circle cx="242" cy="564" r="1" fill="white"/>
    <circle cx="383" cy="651" r="1.3" fill="white"/>
    <circle cx="482" cy="525" r="1" fill="white"/>
    <circle cx="631" cy="618" r="1.5" fill="white"/>
    <circle cx="781" cy="551" r="1" fill="white"/>
    <circle cx="883" cy="631" r="1.4" fill="white"/>
    <circle cx="1075" cy="556" r="1" fill="white"/>
    <circle cx="1175" cy="631" r="1.5" fill="white"/>
    <circle cx="1322" cy="527" r="1" fill="white"/>
  </g>
  
  <!-- Medium stars -->
  <g opacity="0.9">
    <circle cx="125" cy="196" r="2" fill="white"/>
    <circle cx="292" cy="164" r="2.2" fill="white"/>
    <circle cx="425" cy="296" r="2" fill="white"/>
    <circle cx="597" cy="221" r="2.3" fill="white"/>
    <circle cx="701" cy="321" r="2" fill="white"/>
    <circle cx="871" cy="212" r="2.5" fill="white"/>
    <circle cx="975" cy="346" r="2" fill="white"/>
    <circle cx="1109" cy="264" r="2.4" fill="white"/>
    <circle cx="1225" cy="341" r="2" fill="white"/>
    <circle cx="142" cy="625" r="2.2" fill="white"/>
    <circle cx="325" cy="564" r="2" fill="white"/>
    <circle cx="467" cy="696" r="2.3" fill="white"/>
    <circle cx="601" cy="521" r="2" fill="white"/>
    <circle cx="771" cy="612" r="2.5" fill="white"/>
    <circle cx="925" cy="496" r="2" fill="white"/>
    <circle cx="1042" cy="564" r="2.4" fill="white"/>
    <circle cx="1225" cy="621" r="2" fill="white"/>
    <circle cx="1355" cy="544" r="2.5" fill="white"/>
  </g>
  
  <!-- Large bright stars -->
  <g opacity="1">
    <circle cx="212" cy="123" r="3" fill="white" filter="drop-shadow(0 0 3px white)"/>
    <circle cx="412" cy="256" r="3.5" fill="white" filter="drop-shadow(0 0 3px white)"/>
    <circle cx="653" cy="187" r="3" fill="white" filter="drop-shadow(0 0 3px white)"/>
    <circle cx="823" cy="293" r="3.5" fill="white" filter="drop-shadow(0 0 3px white)"/>
    <circle cx="1024" cy="193" r="3" fill="white" filter="drop-shadow(0 0 3px white)"/>
    <circle cx="1242" cy="259" r="3.5" fill="white" filter="drop-shadow(0 0 3px white)"/>
    <circle cx="146" cy="493" r="3" fill="white" filter="drop-shadow(0 0 3px white)"/>
    <circle cx="356" cy="642" r="3.5" fill="white" filter="drop-shadow(0 0 3px white)"/>
    <circle cx="653" cy="587" r="3" fill="white" filter="drop-shadow(0 0 3px white)"/>
    <circle cx="853" cy="693" r="3.5" fill="white" filter="drop-shadow(0 0 3px white)"/>
    <circle cx="1024" cy="543" r="3" fill="white" filter="drop-shadow(0 0 3px white)"/>
    <circle cx="1342" cy="659" r="3.5" fill="white" filter="drop-shadow(0 0 3px white)"/>
  </g>
  
  <!-- Nebula glows -->
  <circle cx="400" cy="400" r="150" fill="url(#nebula1)" opacity="0.2" />
  <circle cx="1100" cy="500" r="180" fill="url(#nebula2)" opacity="0.15" />
  <circle cx="700" cy="200" r="120" fill="url(#nebula3)" opacity="0.1" />
  
  <radialGradient id="nebula1" cx="0.5" cy="0.5" r="0.5" fx="0.5" fy="0.5">
    <stop offset="0%" stop-color="#EC4899" stop-opacity="0.7" />
    <stop offset="100%" stop-color="#EC4899" stop-opacity="0" />
  </radialGradient>
  
  <radialGradient id="nebula2" cx="0.5" cy="0.5" r="0.5" fx="0.5" fy="0.5">
    <stop offset="0%" stop-color="#8B5CF6" stop-opacity="0.7" />
    <stop offset="100%" stop-color="#8B5CF6" stop-opacity="0" />
  </radialGradient>
  
  <radialGradient id="nebula3" cx="0.5" cy="0.5" r="0.5" fx="0.5" fy="0.5">
    <stop offset="0%" stop-color="#3B82F6" stop-opacity="0.7" />
    <stop offset="100%" stop-color="#3B82F6" stop-opacity="0" />
  </radialGradient>
</svg>
